# xmcd CD database file
#
# Track frame offsets:
#	150
#	22371
#	41930
#	68931
#	88296
#	110136
#	127396
#	145229
#	162200
#	179408
#	205966
#	223074
#	250525
#	263005
#
# Disc length: 3657 seconds
#
# Revision: 0
# Processed by: cddbd v1.5.2PL0 Copyright (c) Steve Scherf et al.
# Submitted via: CDex 1.51
#
DISCID=e50e470e
DTITLE=Yairy - Great Hits, performed by ethnic instruments
DYEAR=1900
DGENRE=New Age
TTITLE0=My Heart will go on (J. Horner)
TTITLE1=My Way (P. Anka-J.Revaux)
TTITLE2=Chiquitita (Abba)
TTITLE3=Fernando  (Abba)
TTITLE4=Aisha (J. Golman)
TTITLE5=Soleado (J. Golman - G. Clinton)
TTITLE6=Condor Pasa (D.A. Robles)
TTITLE7=Eternal Flame (The Bangles)
TTITLE8=An Angel (Kelly Family)
TTITLE9=The Power of Love (Celine Dion)
TTITLE10=Say you, say me (Lionel Richie)
TTITLE11=Nothing else mathers (Metalica)
TTITLE12=Romeo y Julieta (Rota)
TTITLE13=Luciernaga (D.R)
EXTD=
EXTT0=
EXTT1=
EXTT2=
EXTT3=
EXTT4=
EXTT5=
EXTT6=
EXTT7=
EXTT8=
EXTT9=
EXTT10=
EXTT11=
EXTT12=
EXTT13=
PLAYORDER=
